<svg width="101" height="72" viewBox="0 0 101 72" xmlns="http://www.w3.org/2000/svg"><g fill="#FFF" fill-rule="evenodd"><path d="M0 71.765h100.479V0H0v71.765zm1.932-2.071h96.615V1.967H1.932v67.727z"/><path d="M48.18 16.724l2.04-1.565 2.038 1.565-.776-2.53 2.071-1.565h-2.552l-.782-2.56-.78 2.563-2.552-.003 2.07 1.565zm-10.55 2.98l2.04-1.564 2.037 1.564-.775-2.53 2.07-1.564h-2.553l-.781-2.563-.78 2.566-2.552-.003 2.069 1.565zm-5.68 1.478l-.781 2.566-2.551-.003 2.069 1.564-.776 2.53 2.039-1.564 2.038 1.564-.775-2.53 2.069-1.564H32.73zm-2.832 16.173l2.037 1.564-.774-2.53 2.069-1.564H29.9l-.782-2.564-.781 2.57-2.553-.006 2.071 1.564-.776 2.53zm3.612 8.583l-.78-2.564-.781 2.566-2.551-.002 2.069 1.564-.776 2.53 2.039-1.567 2.038 1.567-.775-2.53 2.069-1.564zm7.735 8.132l-.781-2.56-.78 2.563-2.552-.003 2.07 1.564-.775 2.53 2.038-1.564 2.038 1.564-.775-2.53 2.07-1.564zm10.537 2.947l-.781-2.563-.78 2.566-2.552-.003 2.069 1.564-.774 2.53 2.038-1.564 2.037 1.564-.775-2.53 2.07-1.564zm10.537-2.947l-.78-2.56-.783 2.563-2.55-.003 2.069 1.564-.775 2.53 2.04-1.564 2.039 1.564-.778-2.53 2.071-1.564zm7.737-8.132l-.783-2.564-.782 2.566-2.55-.002 2.07 1.564-.776 2.53 2.038-1.567 2.039 1.567-.777-2.53 2.07-1.564zm5.352-11.144h-2.552l-.783-2.564-.78 2.567-2.552-.003 2.07 1.564-.774 2.53 2.036-1.567 2.039 1.567-.775-2.53zm-8.173-6.988l2.038-1.564 2.039 1.564-.777-2.53 2.07-1.562h-2.55l-.782-2.563-.782 2.566-2.55-.003 2.07 1.562zM60.788 13.05l-.78 2.566-2.552-.006 2.068 1.567-.774 2.53 2.04-1.567 2.037 1.567-.775-2.53 2.071-1.567h-2.555z"/></g></svg>