<svg width="40" height="40" viewBox="0 0 40 40" xmlns="http://www.w3.org/2000/svg"><g fill="none" fill-rule="evenodd"><path d="M0 20C0 8.954 8.954 0 20 0s20 8.954 20 20-8.954 20-20 20S0 31.046 0 20z" fill="#0077B5"/><path d="M14.134 16.565v13.618H9.6V16.565h4.533zm.298-4.213c0 1.308-.984 2.354-2.564 2.354h-.03c-1.521 0-2.505-1.046-2.505-2.354 0-1.335 1.014-2.352 2.565-2.352 1.55 0 2.505 1.017 2.534 2.352zM30.48 22.375v7.808h-4.532v-7.286c0-1.83-.656-3.078-2.297-3.078-1.252 0-1.998.841-2.325 1.654-.12.292-.15.698-.15 1.105v7.605h-4.532s.06-12.34 0-13.618h4.533v1.93c.601-.928 1.679-2.25 4.085-2.25 2.983 0 5.218 1.947 5.218 6.13z" fill="#FFF"/></g></svg>