<svg width="162" height="162" viewBox="0 0 162 162" xmlns="http://www.w3.org/2000/svg"><g fill="none" fill-rule="evenodd"><path d="M1.306 81.052c0-44.063 35.72-79.783 79.783-79.783 44.062 0 79.782 35.72 79.782 79.783s-35.72 79.783-79.782 79.783c-44.063 0-79.783-35.72-79.783-79.783z" fill="#ECEDE3"/><path d="M81.073 160.856c-44.063 0-79.783-35.72-79.783-79.783S37.01 1.29 81.073 1.29c44.062 0 79.782 35.72 79.782 79.783s-35.72 79.783-79.782 79.783z" stroke="#F0ECDF" stroke-width="1.425"/><path d="M150.949 81.121c-5.037.101-10.198 8.269-15.116.686 3.987-1.394 8.296-.435 12.443-.652-4.158-.048-8.375-1.63-12.474-.143 4.228-8.402 10.11.21 15.147.11" fill="#7FB642"/><path d="M147.341 81.12c-3.854-.233-7.747-1.485-11.54-.109 4.162-8.269 9.927-.055 14.909.108l-3.369.001zm-134.906.046c5.037.102 10.198 8.27 15.115.686-3.987-1.394-8.295-.434-12.443-.651 4.158-.048 8.375-1.632 12.475-.145-4.229-8.401-10.112.212-15.147.11" fill="#7FB642"/><path d="M16.042 81.166c3.854-.234 7.748-1.486 11.54-.11-4.161-8.269-9.927-.054-14.909.109l3.37.001z" fill="#E03725"/><path d="M12.435 81.166c5.037.102 10.198 8.27 15.115.686-3.986-1.394-8.296-.434-12.442-.651 4.157-.048 8.374-1.632 12.474-.145-4.228-8.401-10.111.212-15.147.11" fill="#7FB642"/><path d="M16.042 81.166c3.854-.234 7.748-1.486 11.54-.11-4.161-8.269-9.927-.054-14.909.109l3.37.001z" fill="#7FB642"/><path d="M97.139 94.125V74.114L81.073 65.5l-16.067 8.613v29.616h-.966V88.677v15.052h-3.024V75.665H52.13l28.943-15.517L91.1 65.525v-7.107h5.95v10.296l12.964 6.95h-8.894v28.065H88.47v-.039l.149-.34.159-.337.17-.34.168-.336.177-.333.187-.322.195-.33.193-.323.215-.315.204-.315.22-.315.232-.306.23-.3.23-.308.247-.29.251-.292.256-.29.267-.283.265-.277.276-.275.274-.275.285-.268.292-.26.3-.251.302-.252.3-.253.312-.235.32-.237.319-.237.328-.22.328-.22.336-.22.338-.206.345-.204zm-16.066-29.63l-3.6 1.93 3.6-1.93zm16.066 20.713v4.54l-.364.237-.363.235-.356.244-.344.252-.347.252-.344.261-.339.259-.328.276-.328.267-.319.283-.309.283-.31.291-.3.294-.304.297-.292.308-.284.308-.275.306-.276.315-.264.322-.267.323-.256.33-.248.331-.24.338-.231.34-.231.337-.22.347-.224.354-.204.354-.204.355-.195.354-.185.362-.179.37-.176.362-.168.37-.16.378-.151.37-.14.378-.144.386-.124.378-.124.387-.115.386-.105.383-.1.387v.031h-1.87v-.014l.125-1.12.176-1.109.24-1.102.292-1.087.355-1.078.408-1.055.462-1.046.513-1.025.567-.998.622-.977.664-.946.719-.92.771-.89.807-.858.851-.826.904-.788.93-.756.978-.708 1.011-.67.912-.548zm-19.622 18.057l.044.465h-1.862l-.212-.763-.24-.758-.267-.754-.3-.741-.32-.732-.354-.724-.382-.708-.407-.702-.427-.684-.46-.67-.487-.661-.507-.646-.54-.628-.56-.608-.575-.599-.603-.574-.63-.557-.648-.535-.664-.52-.683-.497-.71-.48-.717-.448v-4.527l.444.251.433.262.426.266.425.283.418.284.408.291.407.29.4.308.389.316.381.315.382.323.372.33.363.339.355.346.346.346.346.353.327.364.33.37.318.368.303.38.3.385.294.386.284.394.273.393.267.4.265.41.25.409.239.418.23.418.222.425.212.425.204.433.196.433.184.433.17.44.169.44.16.45.14.45.143.447.124.457.116.456.105.457.099.457.088.457.08.465.06.464.064.464zm-3.768.07l.177.394h-8.92v-9.627l.398.227.39.238.391.244.38.252.383.259.372.268.364.274.355.276.345.283.346.301.337.299.327.298.32.315.32.314.3.324.303.331.292.338.275.34.276.344.264.347.258.362.248.356.249.369.23.369.221.371.213.377.204.386.195.386.187.386z" fill="#4D4D4D"/><path fill="#7AB542" d="M97.139 74.113v7.653l-.204.103-.204.092-.204.103-.204.103-.195.103-.204.11-.204.103-.195.109-.193.11-.196.11-.195.12-.196.11-.195.117-.185.118-.196.119-.187.125-.185.119-.187.125-.187.127-.184.124-.18.127-.184.125-.179.134-.176.135-.187.134-.169.134-.176.133-.178.141-.168.135-.169.141-.176.143-.168.141-.16.15-.17.14-.168.15-.16.142-.16.15-.16.158-.16.148-.149.151-.16.157-.151.157-.151.159-.15.156-.15.158-.152.158-.14.165-.143.157-.152.166-.132.165-.141.165-.143.166-.132.166-.133.171-.134.166-.133.174-.123.173-.133.173-.126.173-.122.174-.126.18-.124.174-.116.18-.113.172-.116.184-.115.18-.116.181-.107.181-.105.18-.107.19-.105.18-.108.19-.099.18-.096.19-.096.189-.1.19-.096.188-.088.19-.09.188-.089.196-.088.19-.08.195-.088.19-.08.196-.072.198-.08.189-.08.197-.07.196-.07.198-.072.195-.063.198-.061.205-.071.196-.053.197-.063.204-.06.197-.053.206-.055.196-.053.204-.043.206-.044.195-.055.205-.036.205-.044.206-.036.204-.044.205-.033.197-.028.205-.035.213-.028.203-.025.205-.027.205-.028.205-.017.203-.018.205-.017.205-.018.213-.01.205-.016.204-.009.204v.212l-.01.206v.827l.01.205.009.205.008.213v.007h-1.826v-.731l.008-.244.008-.244v-.245l.01-.244.018-.244.008-.244.019-.244.017-.245.018-.242.017-.244.028-.244.017-.245.027-.245.025-.243.036-.245.027-.244.036-.242.036-.245.036-.237.035-.243.044-.245.045-.235.033-.244.055-.244.044-.237.044-.244.053-.235.054-.245.053-.237.053-.244.062-.235.062-.236.062-.245.064-.237.06-.234.063-.237.07-.237.071-.235.072-.238.069-.236.082-.235.078-.237.071-.236.08-.228.09-.237.078-.235.09-.229.089-.236.088-.228.088-.227.089-.237.098-.228.097-.23.099-.226.096-.23.097-.228.107-.229.097-.22.107-.227.107-.23.116-.22.105-.227.116-.222.115-.22.116-.228.116-.221.115-.22.122-.221.124-.211.116-.221.134-.22.124-.212.124-.223.132-.212.133-.211.134-.222.132-.212.133-.213.143-.212.14-.204.144-.213.14-.212.143-.204.14-.206.152-.212.152-.206.14-.203.16-.205.151-.205.152-.198.16-.203.159-.198.15-.205.17-.195.16-.198.157-.196.17-.198.168-.195.16-.19.176-.196.169-.19.168-.189.179-.197.168-.189.176-.18.178-.19.178-.19.186-.18.177-.189.187-.18.185-.181.178-.181.196-.181.185-.173.187-.181.196-.174.184-.173.196-.174.195-.173.196-.173.193-.174.204-.164.195-.174.204-.165.204-.166.204-.164.204-.166.204-.156.205-.167.213-.159.204-.156.212-.157.212-.158.214-.157.213-.158z"/><path fill="#4D4D4D" d="M93.079 73.398l-.691.559-.675.567-.656.582-.648.598-.638.606-.62.613-.603.63-.586.638-.576.655-.559.66-.549.67-.534.676-.504.694-.506.7-.477.708-.463.718-.452.723-.426.734-.416.737v-7.95l.31-.386.328-.369.337-.362.355-.354.364-.347.371-.338.383-.332.389-.315.407-.306.41-.3.425-.29.435-.277.433-.258.454-.26.452-.236.47-.238.47-.22.478-.205.488-.196.487-.18zm-4.586-2.456l-.636.33-.63.337-.62.356-.623.362-.601.377-.595.386-.586.401-.576.41-.567.418-.56.432V67.73z"/><path fill="#7AB542" d="M81.18 102.73l.017.999h-1.818l.017-.787-.009-.787-.044-.787-.071-.788-.097-.78-.124-.779-.16-.78-.187-.77-.212-.764-.24-.755-.275-.747-.292-.741-.328-.733-.355-.723-.38-.716-.408-.694-.435-.691-.46-.67-.48-.662-.515-.645-.53-.63-.552-.613-.575-.6-.604-.583-.62-.558-.647-.545-.656-.517-.682-.504-.702-.488-.717-.457-.738-.442-.752-.425-.763-.393-.78-.37v-7.692l.877.63.861.653.833.67.825.684.797.709.772.732.754.74.735.763.7.789.693.794.656.812.64.825.61.843.585.859.559.873.532.883.506.889.48.914.451.911.424.93.391.945.372.945.337.953.31.967.284.968.258.977.221.982.196.985.16.992.132 1 .107.991.07 1.002z"/><path fill="#4D4D4D" d="M79.646 67.73v7.022l-.702-.535-.708-.521-.727-.503-.747-.49L76 72.24l-.77-.456-.78-.426-.8-.416zm-10.511 5.668l.691.559.675.567.656.582.647.598.639.606.62.613.603.63.586.638.576.655.559.66.549.67.533.676.505.694.506.7.477.708.462.718.452.723.427.734.416.737v-7.95l-.31-.386-.329-.369-.336-.362-.355-.354-.364-.347-.372-.338-.382-.332-.39-.315-.407-.306-.41-.3-.424-.29-.435-.277-.433-.258-.454-.26-.452-.236-.47-.238-.469-.22-.48-.205-.487-.196-.487-.18z"/><path d="M27.77 134.376c13.641 13.64 32.486 22.078 53.303 22.078 20.816 0 39.66-8.437 53.302-22.078 13.641-13.641 22.079-32.487 22.079-53.303 0-20.816-8.438-39.66-22.079-53.303C120.734 14.13 101.89 5.692 81.073 5.692S41.411 14.129 27.77 27.77C14.13 41.412 5.692 60.257 5.692 81.073c0 20.816 8.437 39.662 22.078 53.303M81.073 158.5c-21.381 0-40.738-8.667-54.75-22.678-14.012-14.012-22.678-33.369-22.678-54.75 0-21.38 8.666-40.738 22.678-54.75C40.335 12.313 59.692 3.647 81.073 3.647c21.38 0 40.737 8.666 54.749 22.678 14.011 14.011 22.678 33.368 22.678 54.75 0 21.38-8.666 40.737-22.678 54.749-14.012 14.011-33.369 22.678-54.75 22.678" fill="#4D4D4D"/><path d="M48.753 113.393c8.27 8.27 19.698 13.387 32.32 13.387s24.049-5.116 32.32-13.387c8.27-8.271 13.386-19.698 13.386-32.32s-5.116-24.049-13.387-32.32c-8.27-8.27-19.697-13.386-32.32-13.386-12.621 0-24.048 5.117-32.319 13.386-8.27 8.271-13.387 19.698-13.387 32.32s5.116 24.049 13.387 32.32m32.32 17.48c-13.753 0-26.202-5.574-35.214-14.586-9.012-9.012-14.586-21.462-14.586-35.214 0-13.751 5.574-26.202 14.586-35.213 9.012-9.012 21.461-14.586 35.214-14.586 13.751 0 26.201 5.574 35.213 14.586 9.012 9.011 14.586 21.462 14.586 35.213 0 13.752-5.574 26.202-14.586 35.214-9.012 9.012-21.462 14.586-35.213 14.586" fill="#4D4D4D"/></g></svg>