<svg width="41" height="40" viewBox="0 0 41 40" xmlns="http://www.w3.org/2000/svg"><g fill="none" fill-rule="evenodd"><path d="M0 20C0 8.954 9.04 0 20.193 0c11.152 0 20.193 8.954 20.193 20s-9.04 20-20.193 20C9.041 40 0 31.046 0 20z" fill="#CE1312"/><path d="M30.703 15.974s-.21-1.502-.855-2.163c-.818-.87-1.735-.873-2.155-.924-3.01-.22-7.524-.22-7.524-.22h-.01s-4.514 0-7.524.22c-.421.05-1.337.055-2.156.924-.644.661-.854 2.163-.854 2.163s-.215 1.765-.215 3.529v1.654c0 1.764.215 3.528.215 3.528s.21 1.502.854 2.164c.819.868 1.894.841 2.372.932 1.72.167 7.313.219 7.313.219s4.52-.007 7.53-.228c.42-.05 1.336-.055 2.154-.923.645-.662.855-2.164.855-2.164s.215-1.764.215-3.528v-1.654c0-1.764-.215-3.529-.215-3.529z" fill="#FFF"/><path fill="#CE1312" d="M17.943 23.16v-6.124l5.81 3.073z"/></g></svg>