<svg width="56" height="59" viewBox="0 0 56 59" xmlns="http://www.w3.org/2000/svg"><path d="M42.75 33.425c.687.117 1.416-.025 2.124-.072.331-.022.444-.124.444-.124s-.009-2.743-.009-3.92l3.991-.962-.002.559.008 6.443s-.115.131-.37.335c-1.954 1.56-4.225 2.196-6.642 1.86-3.174-.44-5.32-2.313-6.346-5.463-1.35-4.149.27-8.575 4.172-10.418 2.549-1.203 6.199-.904 8.952 1.286.061.05.234.186.234.186s-1.687 1.955-2.515 2.911c-1.352-1.012-2.788-1.401-4.366-.999-1.861.474-3.029 2.17-2.964 4.239.072 2.26 1.24 3.792 3.29 4.14zm-11.588 3.853l-.144-.397-2.957-8.517-3.06 8.942s-3.165-.009-4.554-.009c.122-.346 6.091-16.058 6.091-16.058h3.093l5.109 13.382c.327.857.649 1.716 1.01 2.675-1.518 0-4.588-.018-4.588-.018zm-12.684.007l-11.784.01s4.915-8.228 7.404-12.402H7.564l.227-.661 1.105-2.966H21.03L13.615 33.57h6.25l-1.387 3.716zM0 58.595h56V0H0v58.594z" fill="#FFF" fill-rule="evenodd"/></svg>