<?xml version="1.0" encoding="UTF-8"?>
<svg width="101px" height="72px" viewBox="0 0 101 72" version="1.1" xmlns="http://www.w3.org/2000/svg" xmlns:xlink="http://www.w3.org/1999/xlink">
    <defs></defs>
    <g id="Pages" stroke="none" stroke-width="1" fill="none" fill-rule="evenodd">
        <g id="01-LandingCarsuelAbout" transform="translate(-1027.000000, -4572.000000)" fill="#FFFFFF">
            <g id="EUlogo" transform="translate(1027.000000, 4572.000000)">
                <g>
                    <path d="M0,71.7650149 L100.478776,71.7650149 L100.478776,0 L0,0 L0,71.7650149 Z M1.9322776,69.6938507 L98.5468387,69.6938507 L98.5468387,1.96728358 L1.9322776,1.96728358 L1.9322776,69.6938507 Z" id="Fill-1"></path>
                    <polygon id="Fill-2" points="48.1807899 16.7237731 50.2193564 15.1594746 52.2582636 16.7237731 51.4822184 14.1941015 53.5531485 12.6294448 51.0005117 12.6294448 50.2193564 10.0689672 49.4382012 12.6323104 46.8872677 12.6294448 48.9564945 14.1941015"></polygon>
                    <polygon id="Fill-3" points="37.6306633 19.7041791 39.6692298 18.1398806 41.7067743 19.7041791 40.9320917 17.1745075 43.0016592 15.6098507 40.4490223 15.6098507 39.6678671 13.0465075 38.8870525 15.6127164 36.3357784 15.6098507 38.4050051 17.1745075"></polygon>
                    <polygon id="Fill-4" points="31.9497604 21.181791 31.1686051 23.748 28.6176716 23.7451343 30.6868984 25.3094328 29.9111939 27.8394627 31.9497604 26.2751642 33.9883268 27.8394627 33.2126223 25.3094328 35.2818491 23.7451343 32.7309156 23.7451343"></polygon>
                    <polygon id="Fill-5" points="29.1179449 37.3545313 31.1551487 38.9188299 30.3808068 36.3891582 32.4500336 34.8248597 29.8991001 34.8248597 29.1179449 32.2611582 28.3367896 34.8302328 25.7844935 34.8248597 27.8550829 36.3891582 27.0793784 38.9188299"></polygon>
                    <polygon id="Fill-6" points="32.7308815 45.9375761 31.9497263 43.3742328 31.168571 45.9404418 28.6176376 45.9375761 30.6868643 47.5018746 29.9111598 50.0319045 31.9497263 48.4647403 33.9882928 50.0319045 33.2125882 47.5018746 35.281815 45.9375761"></polygon>
                    <polygon id="Fill-7" points="40.4651701 54.0700299 39.6840148 51.5095522 38.9042223 54.0728955 36.3519261 54.0700299 38.4211529 55.6343284 37.646811 58.1643582 39.6853775 56.5997015 41.7225813 58.1643582 40.9482395 55.6343284 43.0174662 54.0700299"></polygon>
                    <polygon id="Fill-8" points="51.0019425 57.0168716 50.2207873 54.4535284 49.4409947 57.0197373 46.8886985 57.0168716 48.9579253 58.5811701 48.1835834 61.1112 50.2221499 59.5465433 52.2593537 61.1112 51.4836492 58.5811701 53.5542386 57.0168716"></polygon>
                    <polygon id="Fill-9" points="61.538749 54.0700299 60.7589564 51.5095522 59.9764385 54.0728955 57.4268677 54.0700299 59.4947318 55.6343284 58.7203899 58.1643582 60.7589564 56.5997015 62.7975229 58.1643582 62.0204557 55.6343284 64.0910451 54.0700299"></polygon>
                    <polygon id="Fill-10" points="69.2756607 45.9375761 68.4931428 43.3742328 67.7106248 45.9404418 65.1610541 45.9375761 67.2316435 47.5018746 66.4545763 50.0319045 68.4931428 48.4647403 70.5320499 50.0319045 69.754642 47.5018746 71.8252315 45.9375761"></polygon>
                    <polygon id="Fill-11" points="74.6279197 34.7939104 72.0756236 34.7939104 71.2931057 32.230209 70.5133131 34.7967761 67.9610169 34.7939104 70.0316064 36.358209 69.2569239 38.8882388 71.2931057 37.3210746 73.3316721 38.8882388 72.5573303 36.358209"></polygon>
                    <polygon id="Fill-12" points="66.4545081 27.8058627 68.4930746 26.2415642 70.5319818 27.8058627 69.7549146 25.276191 71.825504 23.7144 69.2755925 23.7144 68.4930746 21.1510567 67.7108974 23.7172657 65.1609859 23.7144 67.2315753 25.276191"></polygon>
                    <polygon id="Fill-13" points="60.7882199 13.0493373 60.0084274 15.6155463 57.4561312 15.6098149 59.5239953 17.1769791 58.7496534 19.707009 60.7909453 18.1398448 62.8267864 19.707009 62.0524446 17.1769791 64.123034 15.6098149 61.5680125 15.6098149"></polygon>
                </g>
            </g>
        </g>
    </g>
</svg>