<?xml version="1.0" encoding="UTF-8"?>
<svg width="162px" height="162px" viewBox="0 0 162 162" version="1.1" xmlns="http://www.w3.org/2000/svg" xmlns:xlink="http://www.w3.org/1999/xlink">
    <defs></defs>
    <g id="Pages" stroke="none" stroke-width="1" fill="none" fill-rule="evenodd">
        <g id="01-LandingCarsuelAbout" transform="translate(-149.000000, -99.000000)">
            <g id="LogoColor" transform="translate(150.000000, 100.000000)">
                <g>
                    <path d="M0.305913486,80.0523969 C0.305913486,35.9892926 36.0258117,0.268987277 80.0885089,0.268987277 C124.151206,0.268987277 159.871104,35.9892926 159.871104,80.0523969 C159.871104,124.114687 124.151206,159.834992 80.0885089,159.834992 C36.0258117,159.834992 0.305913486,124.114687 0.305913486,80.0523969 Z" id="Fill-1" fill="#ECEDE3"></path>
                    <path d="M80.0725903,159.856081 C36.0098931,159.856081 0.289994911,124.135776 0.289994911,80.073486 C0.289994911,36.0103817 36.0098931,0.290076336 80.0725903,0.290076336 C124.135288,0.290076336 159.855186,36.0103817 159.855186,80.073486 C159.855186,124.135776 124.135288,159.856081 80.0725903,159.856081 Z" id="Stroke-3" stroke="#F0ECDF" stroke-width="1.425"></path>
                    <path d="M149.94858,80.1212824 C144.911634,80.2222494 139.750514,88.3899847 134.833262,80.8068804 C138.819827,79.4128855 143.128835,80.3724784 147.276214,80.1550738 C143.118249,80.1070331 138.901252,78.5241323 134.801506,80.0117659 C139.029903,71.6099338 144.912855,80.2222494 149.94858,80.1212824" id="Fill-5" fill="#7FB642"></path>
                    <path d="M146.341293,80.1204682 C142.487043,79.8871858 138.594117,78.6348702 134.801344,80.0109517 C138.963379,71.7422494 144.728265,79.9563969 149.709842,80.1192468 L146.341293,80.1204682 Z" id="Fill-7" fill="#7FB642"></path>
                    <path d="M11.4351145,80.1663919 C16.4716539,80.2677659 21.6327735,88.4350941 26.5500254,80.8515827 C22.5634606,79.4579949 18.2548601,80.4175878 14.1074809,80.2005903 C18.2650382,80.1525496 22.4820356,78.5688346 26.5817812,80.0560611 C22.3533842,71.6550433 16.4704326,80.2677659 11.4351145,80.1663919" id="Fill-9" fill="#7FB642"></path>
                    <path d="M15.042402,80.1659847 C18.8958372,79.9322952 22.7895776,78.6803868 26.581944,80.0560611 C22.4207226,71.7869517 16.65543,80.0015064 11.6730382,80.1647634 L15.042402,80.1659847 Z" id="Fill-11" fill="#E03725"></path>
                    <path d="M11.4351145,80.1663919 C16.4720611,80.2677659 21.6331807,88.4350941 26.5496183,80.8515827 C22.5638677,79.4579949 18.2544529,80.4175878 14.107888,80.2005903 C18.2654453,80.1525496 22.4824427,78.5688346 26.5821883,80.0560611 C22.3537913,71.6550433 16.4708397,80.2677659 11.4351145,80.1663919" id="Fill-13" fill="#7FB642"></path>
                    <path d="M15.042402,80.1659847 C18.8958372,79.9322952 22.7895776,78.6803868 26.581944,80.0560611 C22.4207226,71.7869517 16.65543,80.0015064 11.6730382,80.1647634 L15.042402,80.1659847 Z" id="Fill-15" fill="#7FB642"></path>
                    <path d="M96.1389109,93.1248855 L96.1389109,88.7487023 L96.1389109,84.2080407 L96.1389109,80.7662087 L96.1389109,73.1138931 L80.0729567,64.5011705 L64.0061883,73.1138931 L64.0061883,80.8056997 L64.0061883,84.2141476 L64.0061883,88.741374 L64.0061883,93.1024936 L64.0061883,102.729364 L63.0396743,102.729364 L63.0396743,87.6773537 L63.0396743,102.728957 L60.0159593,102.728957 L60.0159593,74.664631 L51.1304631,74.664631 L80.0725496,59.147888 L90.1012519,64.5251908 L90.1012519,57.4176081 L96.050972,57.4176081 L96.050972,67.7137913 L109.015043,74.664631 L100.121405,74.664631 L100.121405,102.728957 L97.1058321,102.728957 L96.1390738,102.729364 L87.4681323,102.729527 L87.4681323,102.690036 L87.6175471,102.350901 L87.7767328,102.012987 L87.9473181,101.673852 L88.1154606,101.336753 L88.2917455,101.003725 L88.4786158,100.68169 L88.6744427,100.351919 L88.8674198,100.029476 L89.0823817,99.7139542 L89.2863511,99.3992468 L89.5066056,99.0841323 L89.7378524,98.7783817 L89.968285,98.4775165 L90.1979033,98.1701374 L90.4454351,97.8798575 L90.6962239,97.5883562 L90.9523053,97.2976692 L91.218972,97.0147176 L91.4840102,96.7382799 L91.7596336,96.4626565 L92.0344427,96.1878473 L92.3186158,95.9195522 L92.6105242,95.6602137 L92.9113893,95.4086107 L93.2134758,95.1570076 L93.5135267,94.9037761 L93.8249771,94.6688651 L94.14457,94.4319186 L94.4637557,94.194972 L94.7918982,93.9751247 L95.1200407,93.7552774 L95.4559186,93.5350229 L95.7942392,93.3294249 L96.1389109,93.1251449 Z M80.0727532,63.4944603 L76.4723093,65.4244558 L80.0725496,63.4943511 Z M96.1389109,84.2080407 L96.1389109,88.7487023 L95.7753486,88.9852417 L95.4117863,89.2201527 L95.0563664,89.4640204 L94.7119389,89.7160305 L94.3650687,89.9676336 L94.0206412,90.2290076 L93.6823206,90.4879389 L93.3541781,90.7643766 L93.0264427,91.0306361 L92.707257,91.314402 L92.3982494,91.5973537 L92.0872061,91.8884478 L91.7871552,92.1815776 L91.4838473,92.4791858 L91.1919389,92.786972 L90.9077659,93.0947583 L90.6325496,93.4005089 L90.3573333,93.7160305 L90.0927023,94.0384733 L89.8260356,94.3605089 L89.5695471,94.6910941 L89.3216081,95.0224936 L89.0822188,95.3604071 L88.8505649,95.6999491 L88.6197252,96.0370483 L88.3990636,96.3839186 L88.1763664,96.738117 L87.9723969,97.0923155 L87.7684275,97.4469211 L87.5734148,97.8007125 L87.388173,98.1626463 L87.2094453,98.533944 L87.0331603,98.8954707 L86.8646107,99.2647328 L86.7050178,99.6433588 L86.5535674,100.012621 L86.4131094,100.39084 L86.2698015,100.776794 L86.1460356,101.15542 L86.0218626,101.541781 L85.9066463,101.927735 L85.8016081,102.311247 L85.7026768,102.697608 L85.7026768,102.729364 L83.8323461,102.729364 L83.8323461,102.714707 L83.9565191,101.595929 L84.1328041,100.486107 L84.3726005,99.3840204 L84.6645089,98.2969975 L85.0195216,97.2193384 L85.4278677,96.1640712 L85.8899542,95.1177608 L86.4025242,94.0926209 L86.970056,93.0947583 L87.5921425,92.1180662 L88.2557557,91.1723155 L88.9747379,90.2513995 L89.7462392,89.3618321 L90.5531603,88.5044275 L91.4040509,87.6779644 L92.3078677,86.889771 L93.2385547,86.1341476 L94.2156539,85.4257506 L95.2269517,84.7564377 L96.1389109,84.2080407 Z M76.5170076,102.264631 L76.5609771,102.729567 L74.6987888,102.729567 L74.4866768,101.966616 L74.2468804,101.209364 L73.9802137,100.454555 L73.6797557,99.7139949 L73.3601628,98.9815776 L73.0055573,98.2577099 L72.6244885,97.5497201 L72.2169567,96.8482443 L71.7902901,96.1642748 L71.3302392,95.4945547 L70.8425038,94.83257 L70.3364478,94.1872774 L69.7961934,93.5586768 L69.2368041,92.9512468 L68.6611298,92.3523664 L68.0581781,91.7779135 L67.427542,91.221374 L66.7802137,90.6860051 L66.1161934,90.1652926 L65.4330382,89.6694148 L64.7230127,89.1890076 L64.0064733,88.7411705 L64.0064733,84.213944 L64.4498321,84.4651399 L64.8826056,84.726514 L65.3092723,84.9927735 L65.7339033,85.2761323 L66.1520204,85.5603053 L66.5595522,85.8509924 L66.967084,86.1416794 L67.3668804,86.4494656 L67.7556845,86.7645802 L68.1371603,87.0796947 L68.5186361,87.4025445 L68.8907481,87.7327226 L69.2539033,88.0718575 L69.608916,88.4183206 L69.9553791,88.7639695 L70.3006209,89.1173537 L70.6283562,89.4813232 L70.9581272,89.8505852 L71.2756845,90.2194402 L71.5785852,90.5984733 L71.8786361,90.9840204 L72.1729873,91.3699746 L72.4567532,91.7636641 L72.7299338,92.1569466 L72.9966005,92.5575573 L73.2616387,92.9679389 L73.5116132,93.3758779 L73.7510025,93.7939949 L73.9802137,94.2117048 L74.2029109,94.6371501 L74.41543,95.0621883 L74.6193995,95.4945547 L74.8148193,95.9277354 L74.9992468,96.3613232 L75.1698321,96.8014249 L75.3379746,97.2419338 L75.4975674,97.6913995 L75.6384326,98.140458 L75.7813333,98.5882952 L75.9050992,99.0450891 L76.0207226,99.5014758 L76.1257608,99.9578626 L76.2246921,100.415064 L76.3130382,100.871858 L76.3928346,101.336794 L76.4539033,101.800509 L76.5170076,102.264631 Z M72.7489466,102.335796 L72.9256387,102.729486 L64.0067583,102.729486 L64.0067583,93.1022087 L64.4037048,93.3293842 L64.7945445,93.5667379 L65.1853842,93.8110127 L65.5656387,94.0630229 L65.9475216,94.3215471 L66.3200407,94.5902494 L66.6840102,94.8638372 L67.0390229,95.1402748 L67.3838575,95.4232265 L67.7303206,95.7244987 L68.0666056,96.022514 L68.394341,96.3205293 L68.7139338,96.6360509 L69.0335267,96.9503511 L69.3331705,97.2736081 L69.6368855,97.6054148 L69.9287939,97.9429211 L70.2040102,98.2824631 L70.4796336,98.6272977 L70.7442646,98.9737608 L71.0023817,99.3356947 L71.2503206,99.6919288 L71.4986667,100.060784 L71.7295064,100.430046 L71.9501679,100.801344 L72.162687,101.177934 L72.3666565,101.563888 L72.5620763,101.950249 L72.7489466,102.335796 Z" id="Combined-Shape" fill="#4D4D4D"></path>
                    <polygon id="Fill-23" fill="#7AB542" points="96.1389109 73.113486 96.1389109 80.7662087 95.9349415 80.8688041 95.730972 80.9612214 95.5274097 81.0642239 95.3234402 81.1668193 95.1280204 81.2698219 94.924458 81.3797455 94.7204885 81.4827481 94.5246616 81.5918575 94.3316845 81.7021883 94.1362646 81.812112 93.9408448 81.9313995 93.7450178 82.0413232 93.5500051 82.1589822 93.3647634 82.2770483 93.1693435 82.3959288 92.9824733 82.5205089 92.7972316 82.6397964 92.6103613 82.7647837 92.4234911 82.8918066 92.2386565 83.0163868 92.0599288 83.1434097 91.8750941 83.2683969 91.6963664 83.402341 91.5196743 83.5370992 91.3328041 83.6714504 91.1642545 83.8053944 90.9883766 83.938117 90.8096489 84.0793893 90.6415064 84.2141476 90.4729567 84.3554198 90.2966718 84.4979135 90.1289364 84.6391858 89.9685293 84.7881934 89.7987583 84.9294656 89.6306158 85.0792875 89.4706158 85.2209669 89.3110229 85.3711959 89.15143 85.5287532 88.9918372 85.6773537 88.8424224 85.8279898 88.6828295 85.9851399 88.530972 86.1422901 88.3799288 86.3006616 88.2309211 86.4565903 88.0794707 86.6149618 87.9284275 86.7725191 87.7875623 86.9378117 87.6446616 87.0945547 87.4932112 87.2606616 87.3608957 87.4263613 87.2200305 87.5912468 87.0771298 87.7565394 86.9448142 87.9230534 86.8120916 88.0944529 86.6777405 88.2597455 86.5454249 88.4339949 86.421659 88.6070229 86.2889364 88.7800509 86.1627277 88.953486 86.0409975 89.1269211 85.9147888 89.3076845 85.7910229 89.4811196 85.6753995 89.661883 85.5622188 89.8332824 85.4461883 90.0168957 85.330972 90.197659 85.2149415 90.3780153 85.1078677 90.5591858 85.0028295 90.7399491 84.8957557 90.9284478 84.7907176 91.1088041 84.6832366 91.2993384 84.5843053 91.4796947 84.4882239 91.6686005 84.3917354 91.8579135 84.2928041 92.0472265 84.1955013 92.2357252 84.1075623 92.4258524 84.0171807 92.6135369 83.9292417 92.8101781 83.8408957 92.9998982 83.7610992 93.1953181 83.6727532 93.3858524 83.5929567 93.5812723 83.5213028 93.7791349 83.4410992 93.9680407 83.3617099 94.1650891 83.290056 94.3605089 83.2212519 94.5587786 83.1491908 94.7541985 83.0860865 94.9524682 83.0250178 95.1572519 82.953771 95.3530789 82.9012519 95.5501272 82.8381476 95.7536896 82.777486 95.951145 82.7249669 96.1571501 82.6704122 96.35257 82.6170789 96.5569466 82.5735165 96.7625445 82.5295471 96.9583715 82.4749924 97.1631552 82.4387583 97.3683461 82.3947888 97.5735369 82.3589618 97.7783206 82.3145852 97.9826972 82.2816081 98.1797455 82.2543308 98.3849364 82.2185038 98.5978626 82.1912265 98.8006107 82.1659847 99.0058015 82.1387074 99.2113995 82.11143 99.4157761 82.0943308 99.6189313 82.0756031 99.8241221 82.0585038 100.028906 82.0414046 100.242239 82.0312265 100.44743 82.0145344 100.650585 82.0059847 100.855369 82.0059847 101.067481 81.9958066 101.273486 81.9958066 101.47827 81.9958066 101.683053 81.9958066 101.895573 81.9958066 102.098728 82.0059847 102.303919 82.0145344 102.509109 82.023084 102.722443 82.023084 102.728957 80.1967226 102.728957 80.1967226 102.485496 80.1967226 102.240814 80.1967226 101.998168 80.2052723 101.7543 80.2134148 101.509618 80.2134148 101.264936 80.2235929 101.021476 80.2406921 100.776794 80.2492417 100.532926 80.2679695 100.288651 80.2850687 100.044377 80.3033893 99.8021374 80.3204885 99.5578626 80.3477659 99.3135878 80.3648651 99.0689059 80.3921425 98.8242239 80.4173842 98.5807634 80.4528041 98.3356743 80.4804885 98.0922137 80.5159084 97.8499746 80.5517354 97.6052926 80.5875623 97.3683461 80.6233893 97.1248855 80.6673588 96.8802036 80.7117354 96.6452926 80.7451196 96.4010178 80.7996743 96.1571501 80.8440509 95.9197964 80.8884275 95.6755216 80.9405394 95.4406107 80.9950941 95.1963359 81.0476132 94.9589822 81.1005394 94.7151145 81.1632366 94.4797964 81.2247125 94.2436641 81.2874097 93.9993893 81.350514 93.7624427 81.4115827 93.5279389 81.4742799 93.2909924 81.5438982 93.0540458 81.615145 92.8187277 81.686799 92.581374 81.7560102 92.3448346 81.8382494 92.1103308 81.9156031 91.8729771 81.987257 91.6368448 82.0670534 91.408855 82.1574351 91.1723155 82.2351959 90.9374046 82.3255776 90.7081934 82.4139237 90.4716539 82.5018626 90.2436641 82.5902087 90.0168957 82.6785547 89.7799491 82.777486 89.5523664 82.8739746 89.322341 82.9729059 89.0955725 83.0693944 88.8651399 83.1662901 88.6383715 83.2733639 88.4091603 83.3702595 88.1889059 83.4773333 87.9621374 83.584 87.7317048 83.7000305 87.5118575 83.8050687 87.2846819 83.9206921 87.0632061 84.0363155 86.8433588 84.1515318 86.6149618 84.2675623 86.3938931 84.3827786 86.1732316 84.5045089 85.9529771 84.6290891 85.7416794 84.7447125 85.5210178 84.8790636 85.3011705 85.0028295 85.0886514 85.1270025 84.8663613 85.2593181 84.6538422 85.3916336 84.4429517 85.5259847 84.2210687 85.6583003 84.0089567 85.7910229 83.7960305 85.9339237 83.5835115 86.0747888 83.3803562 86.2176896 83.1670229 86.3585547 82.9553181 86.5010483 82.7505344 86.6419135 82.5453435 86.7933639 82.3328244 86.9448142 82.1272265 87.0852723 81.9240712 87.2456794 81.7188804 87.3963155 81.5140967 87.548173 81.315827 87.7077659 81.1126718 87.8669517 80.9152163 88.0163664 80.7104326 88.1869517 80.5146056 88.3465445 80.316743 88.5041018 80.1205089 88.6742799 79.9234606 88.8424224 79.7276336 89.0020153 79.5375064 89.1783003 79.3416794 89.3468499 79.1515522 89.5149924 78.9634606 89.6937201 78.765598 89.8618626 78.5770992 90.0381476 78.396743 90.2164682 78.20743 90.3935674 78.0173028 90.5804377 77.8369466 90.7567226 77.6484478 90.944 77.4672774 91.1288346 77.286514 91.3071552 77.1057506 91.5029822 76.9249873 91.6882239 76.7515522 91.8750941 76.5707888 92.070514 76.3973537 92.2553486 76.2239186 92.4507684 76.0500763 92.6461883 75.8770483 92.8416081 75.7036132 93.0349924 75.5301781 93.2385547 75.3661069 93.4343817 75.1922646 93.637944 75.026972 93.8419135 74.8608651 94.045883 74.6967939 94.2498524 74.530687 94.4538219 74.3747583 94.6590127 74.2082443 94.8715318 74.0494656 95.0755013 73.8931298 95.2876132 73.7363868 95.5001323 73.5780153 95.7142799 73.4208651 95.926799 73.2629008"></polygon>
                    <polygon id="Fill-25" fill="#4D4D4D" points="92.0788193 72.3976387 91.3875216 72.9566209 90.712916 73.5241527 90.0570382 74.1059338 89.4093028 74.704 88.7713384 75.3102087 88.1508804 75.9233384 87.5479288 76.5535674 86.9616692 77.1911247 86.3859949 77.8457812 85.8270127 78.5057303 85.2782087 79.1754504 84.7440611 79.8524987 84.2400407 80.5462392 83.7335776 81.2456794 83.2568346 81.9536692 82.7939338 82.6722443 82.3424326 83.3952977 81.9157659 84.1285293 81.4996845 84.8662392 81.4996845 76.9159084 81.8103206 76.5295471 82.1384631 76.1610992 82.4751552 75.7987583 82.8297608 75.4445598 83.1937303 75.0976896 83.5654351 74.7597761 83.9477252 74.4279695 84.3365293 74.112855 84.7440611 73.8066972 85.1544427 73.5070534 85.5786667 73.2163664 86.0142901 72.9403359 86.4466565 72.6818117 86.9010076 72.4220662 87.3525089 72.1855267 87.823145 71.948173 88.2921527 71.7279186 88.7713384 71.5231349 89.2586667 71.3273079 89.7459949 71.1465445"></polygon>
                    <polygon id="Fill-29" fill="#4D4D4D" points="87.4930891 69.9421476 86.8567532 70.2723257 86.226117 70.6094249 85.6060662 70.9652519 84.9839796 71.3271858 84.3826565 71.7037761 83.7882545 72.0901374 83.2015878 72.4911552 82.6259135 72.9011298 82.0587888 73.3188397 81.4993995 73.7512061 81.4993995 66.7295267"></polygon>
                    <polygon id="Fill-31" fill="#7AB542" points="80.1799491 101.729873 80.1970483 102.728957 78.3788295 102.728957 78.3955216 101.941985 78.3873791 101.15542 78.3430025 100.368448 78.2717557 99.5798473 78.1748601 98.8006107 78.0510941 98.021374 77.8910941 97.2417303 77.7042239 96.4714504 77.492112 95.7068702 77.2523155 94.9524682 76.9770992 94.2045802 76.6847837 93.4640204 76.3570483 92.7307888 76.0020356 92.0077354 75.621374 91.2920102 75.2142494 90.5978626 74.7790331 89.9065649 74.3185751 89.2368448 73.8393893 88.5748601 73.3243766 87.9299746 72.7930789 87.2997455 72.2422392 86.6866158 71.6665649 86.0873282 71.0632061 85.5039186 70.4435623 84.9461578 69.7962341 84.4014249 69.1403562 83.8839695 68.4576081 83.3803562 67.7557252 82.8918066 67.0391858 82.4350127 66.3014758 81.9928753 65.5487023 81.5682443 64.7861578 81.1749618 64.006514 80.8052926 64.006514 73.113486 64.8826463 73.743715 65.7441221 74.3963359 66.5766921 75.066056 67.402341 75.7500254 68.199084 76.4588295 68.9705852 77.1912468 69.7249873 77.9318066 70.4598473 78.6943511 71.1601018 79.4829517 71.8534351 80.2772519 72.509313 81.0890585 73.1480916 81.9143003 73.7591858 82.7570483 74.3438168 83.6156743 74.902799 84.4893639 75.4345038 85.3716031 75.9405598 86.2607634 76.4201527 87.1751654 76.8720611 88.0863104 77.296285 89.0165903 77.6871247 89.9607125 78.0592366 90.9056489 78.3955216 91.8591349 78.7065649 92.8264631 78.9903308 93.7941985 79.2484478 94.7708906 79.4691094 95.7532824 79.6649364 96.738117 79.8245293 97.7302799 79.9572519 98.729771 80.0643257 99.7211196 80.1335369 100.723053"></polygon>
                    <polygon id="Fill-33" fill="#4D4D4D" points="78.6456997 66.729486 78.6456997 73.7519796 77.9438168 73.2166107 77.235827 72.6958982 76.5087023 72.1926921 75.7624427 71.7037354 74.999084 71.2400204 74.2283969 70.7836336 73.4483461 70.3577812 72.6495674 69.9421069"></polygon>
                    <polygon id="Fill-39" fill="#4D4D4D" points="68.1350025 72.3976387 68.8263003 72.9566209 69.5009059 73.5241527 70.1567837 74.1059338 70.8037048 74.704 71.4428906 75.3102087 72.0629415 75.9233384 72.6658931 76.5535674 73.2521527 77.1911247 73.8282341 77.8457812 74.3868092 78.5057303 74.9356132 79.1754504 75.4693537 79.8524987 75.9737812 80.5462392 76.4802443 81.2456794 76.9569873 81.9536692 77.4194809 82.6722443 77.8713893 83.3952977 78.298056 84.1285293 78.7141374 84.8662392 78.7141374 76.9159084 78.4030941 76.5295471 78.0749517 76.1610992 77.7386667 75.7987583 77.3840611 75.4445598 77.0196845 75.0976896 76.6479796 74.7597761 76.2656896 74.4279695 75.8768855 74.112855 75.4693537 73.8066972 75.0597863 73.5070534 74.6351552 73.2163664 74.1999389 72.9403359 73.7671654 72.6818117 73.3132214 72.4220662 72.861313 72.1855267 72.3902697 71.948173 71.9220763 71.7279186 71.4428906 71.5231349 70.9551552 71.3273079 70.467827 71.1465445"></polygon>
                    <path d="M26.7702799,133.375878 C40.4113995,147.01659 59.2563868,155.453842 80.0726718,155.453842 C100.88855,155.453842 119.733944,147.01659 133.375064,133.375878 C147.016183,119.734758 155.453842,100.889364 155.453842,80.073486 C155.453842,59.2567939 147.016183,40.4122137 133.375064,26.7698728 C119.733944,13.1291603 100.88855,4.6919084 80.0726718,4.6919084 C59.2563868,4.6919084 40.4113995,13.1291603 26.7702799,26.7698728 C13.1291603,40.4122137 4.69150127,59.2567939 4.69150127,80.073486 C4.69150127,100.889364 13.1291603,119.734758 26.7702799,133.375878 M80.0726718,157.500865 C58.6917048,157.500865 39.3345547,148.834402 25.3229517,134.822799 C11.3113486,120.811196 2.64529262,101.454046 2.64529262,80.073486 C2.64529262,58.692112 11.3113486,39.3349618 25.3229517,25.3237659 C39.3345547,11.3117557 58.6917048,2.64569975 80.0726718,2.64569975 C101.453232,2.64569975 120.810382,11.3117557 134.821985,25.3237659 C148.833181,39.3349618 157.500051,58.692112 157.500051,80.073486 C157.500051,101.454046 148.833588,120.811196 134.821985,134.822799 C120.810382,148.834402 101.453232,157.500865 80.0726718,157.500865" id="Fill-53" fill="#4D4D4D"></path>
                    <path d="M47.7531196,112.392672 C56.0238575,120.663817 67.450626,125.779746 80.0727125,125.779746 C92.694799,125.779746 104.121567,120.663817 112.392305,112.392672 C120.663043,104.121934 125.778972,92.6951654 125.778972,80.073486 C125.778972,67.4509924 120.663043,56.0242239 112.392305,47.753486 C104.121567,39.4831552 92.694799,34.3672265 80.0727125,34.3672265 C67.450626,34.3672265 56.0238575,39.4835623 47.7531196,47.753486 C39.4823817,56.0242239 34.3664529,67.4509924 34.3664529,80.073486 C34.3664529,92.6951654 39.4823817,104.121934 47.7531196,112.392672 M80.0727125,129.87257 C66.3204478,129.87257 53.8709822,124.298626 44.8592774,115.286514 C35.8471654,106.274809 30.2732214,93.8245293 30.2732214,80.073486 C30.2732214,66.3220356 35.8471654,53.8713486 44.8592774,44.8600509 C53.8709822,35.8479389 66.3204478,30.2735878 80.0727125,30.2735878 C93.8241628,30.2735878 106.274036,35.8479389 115.28574,44.8600509 C124.29826,53.8713486 129.871796,66.3220356 129.871796,80.073486 C129.871796,93.8245293 124.29826,106.274809 115.28574,115.286514 C106.274036,124.298626 93.8241628,129.87257 80.0727125,129.87257" id="Fill-55" fill="#4D4D4D"></path>
                </g>
            </g>
        </g>
    </g>
</svg>