<?xml version="1.0" encoding="UTF-8"?>
<svg width="56px" height="59px" viewBox="0 0 56 59" version="1.1" xmlns="http://www.w3.org/2000/svg" xmlns:xlink="http://www.w3.org/1999/xlink">
    <defs></defs>
    <g id="Pages" stroke="none" stroke-width="1" fill="none" fill-rule="evenodd">
        <g id="01-LandingCarsuelAbout" transform="translate(-1027.000000, -4911.000000)" fill="#FFFFFF">
            <path d="M1069.75017,4944.42517 C1070.43694,4944.54155 1071.16611,4944.39994 1071.87428,4944.35274 C1072.20522,4944.33077 1072.31839,4944.22945 1072.31839,4944.22945 C1072.31839,4944.22945 1072.30906,4941.4861 1072.30906,4940.30852 C1073.62661,4939.99195 1076.30022,4939.347 1076.30022,4939.347 L1076.29828,4939.90568 L1076.30644,4946.34861 C1076.30644,4946.34861 1076.19094,4946.48045 1075.93583,4946.6843 C1073.98244,4948.24438 1071.71094,4948.87955 1069.294,4948.54386 C1066.1195,4948.10318 1063.97322,4946.23061 1062.94811,4943.08117 C1061.5975,4938.93237 1063.21761,4934.50606 1067.1205,4932.66278 C1069.66889,4931.45957 1073.31861,4931.75905 1076.07156,4933.9486 C1076.13339,4933.99824 1076.30644,4934.13537 1076.30644,4934.13537 C1076.30644,4934.13537 1074.61944,4936.09014 1073.79072,4937.04636 C1072.43933,4936.03439 1071.00278,4935.64499 1069.42506,4936.04701 C1067.56383,4936.52105 1066.396,4938.21703 1066.46133,4940.28573 C1066.53289,4942.5469 1067.7015,4944.07767 1069.75017,4944.42517 L1069.75017,4944.42517 Z M1058.16206,4948.27774 L1058.01778,4947.88142 L1055.06144,4939.36409 L1052.0005,4948.30623 C1052.0005,4948.30623 1048.83611,4948.29727 1047.44739,4948.29727 C1047.56872,4947.95059 1053.53817,4932.23919 1053.53817,4932.23919 L1054.09583,4932.23919 L1056.09978,4932.2396 L1056.631,4932.23919 C1056.631,4932.23919 1060.10456,4941.33921 1061.73983,4945.62106 C1062.06689,4946.478 1062.3885,4947.33698 1062.75056,4948.29565 C1061.23156,4948.29565 1058.16206,4948.27774 1058.16206,4948.27774 L1058.16206,4948.27774 Z M1045.47806,4948.28466 L1033.69394,4948.29565 C1033.69394,4948.29565 1038.60872,4940.06682 1041.09839,4935.8932 L1034.56389,4935.8932 L1034.79061,4935.23157 L1035.89622,4932.26605 L1048.02917,4932.26605 L1040.61461,4944.56881 L1046.86561,4944.56881 L1045.47806,4948.28466 Z M1027,4969.59425 L1083,4969.59425 L1083,4911 L1027,4911 L1027,4969.59425 Z" id="ZagLogo"></path>
        </g>
    </g>
</svg>